<?xml version="1.0" standalone="no"?>
<!DOCTYPE svg PUBLIC "-//W3C//DTD SVG 20010904//EN"
 "http://www.w3.org/TR/2001/REC-SVG-20010904/DTD/svg10.dtd">
<svg version="1.0" xmlns="http://www.w3.org/2000/svg"
 width="200.000000pt" height="228.000000pt" viewBox="0 0 200.000000 228.000000"
 preserveAspectRatio="xMidYMid meet">

<g transform="translate(0.000000,228.000000) scale(0.100000,-0.100000)"
fill="#0000FF" stroke="none">
<path d="M967 2229 c-10 -22 -15 -44 -12 -48 2 -5 -4 -11 -15 -14 -11 -3 -25
-19 -31 -36 -13 -36 -12 -36 -45 -14 -23 15 -25 20 -19 64 13 96 -38 66 -70
-42 -23 -74 -14 -148 27 -230 29 -58 30 -63 17 -102 -7 -23 -18 -49 -24 -57
-7 -8 -15 -23 -19 -33 -6 -18 -8 -18 -39 3 -54 36 -150 80 -189 86 -40 7 -78
36 -78 59 0 21 -18 18 -32 -5 -19 -31 -51 -24 -102 21 -26 23 -49 40 -51 37
-22 -22 -4 -88 39 -138 11 -14 17 -22 13 -18 -12 9 -74 -18 -121 -53 -43 -32
-84 -38 -91 -14 -17 52 -15 52 -46 15 -35 -42 -40 -104 -10 -141 17 -22 17
-28 5 -49 -7 -14 -13 -33 -14 -43 0 -10 -7 -31 -15 -47 -8 -16 -12 -36 -9 -44
7 -18 59 -22 69 -6 11 18 26 10 20 -10 -4 -11 -1 -36 5 -55 8 -25 8 -39 0 -56
-17 -30 8 -56 38 -40 11 6 23 11 26 11 11 0 6 -31 -9 -54 -11 -16 -14 -45 -13
-102 3 -85 -15 -149 -38 -140 -20 8 -26 -9 -14 -38 13 -35 55 -51 102 -39 23
6 41 6 46 1 5 -5 20 -11 33 -13 52 -8 123 -32 126 -42 7 -19 -57 -83 -81 -83
-28 0 -56 29 -56 58 0 31 -23 27 -43 -7 -20 -35 -21 -67 -4 -101 12 -21 11
-29 -3 -50 -26 -38 -40 -90 -34 -116 l6 -24 38 30 c21 17 45 30 55 30 9 0 25
5 37 11 16 9 24 7 39 -10 11 -12 29 -21 39 -21 16 0 20 7 20 34 0 18 7 39 15
46 8 7 15 20 15 29 0 11 -8 7 -25 -14 -15 -18 -28 -26 -32 -20 -5 6 -14 11
-21 13 -9 1 -9 -7 3 -35 15 -37 15 -37 -3 -15 -16 20 -21 21 -51 11 -27 -9
-35 -9 -42 2 -4 8 -4 16 3 20 6 4 7 13 3 20 -6 11 -5 11 5 2 10 -9 18 -9 34
-1 20 11 20 10 6 -8 -14 -18 -14 -18 3 -5 9 7 17 19 17 26 0 6 10 16 23 22 25
12 43 12 39 0 -4 -14 49 -1 59 14 5 8 9 35 9 62 0 60 14 60 30 2 32 -113 177
-245 382 -347 42 -21 81 -38 88 -38 13 0 129 62 179 96 20 13 41 24 48 24 7 0
13 4 13 8 0 5 9 13 20 18 40 18 162 149 189 203 l28 54 6 -39 c4 -22 20 -61
37 -87 16 -26 30 -58 30 -71 0 -32 23 -39 53 -16 22 18 28 18 71 5 26 -8 59
-24 73 -35 24 -19 28 -19 36 -4 13 24 2 78 -24 113 -19 26 -21 34 -11 56 18
39 14 83 -9 116 -25 36 -39 37 -39 4 0 -28 -32 -65 -56 -65 -17 0 -84 64 -84
81 0 5 9 9 20 9 11 0 28 4 38 9 40 21 111 35 163 32 51 -3 58 0 78 24 26 35
28 65 2 65 -25 0 -31 19 -31 93 -1 58 -9 111 -26 165 -6 21 -4 22 19 17 27 -7
67 9 67 27 0 6 -7 16 -15 22 -12 8 -14 22 -9 59 7 48 8 49 37 43 23 -5 36 -1
54 16 26 25 29 38 8 38 -12 0 -35 55 -35 86 0 6 -7 17 -15 24 -12 10 -12 14 4
32 38 40 30 118 -18 169 l-20 21 -6 -36 c-7 -33 -10 -36 -41 -36 -23 0 -44 9
-68 30 -18 17 -51 37 -71 46 l-37 15 20 22 c36 38 51 97 33 126 -7 11 -16 7
-43 -20 -19 -19 -46 -40 -61 -48 -24 -13 -28 -12 -46 10 l-20 24 -31 -37 c-18
-22 -40 -38 -52 -38 -35 0 -101 -23 -148 -51 -49 -31 -63 -29 -51 4 11 30 5
59 -14 74 -13 9 -16 21 -11 50 4 25 1 48 -9 67 -14 26 -13 30 5 56 21 29 18
60 -6 60 -14 0 -21 21 -26 75 -2 22 -11 34 -34 45 -17 9 -43 26 -59 38 -17 14
-42 22 -64 22 -21 0 -41 4 -47 10 -6 6 -16 -5 -27 -31z m123 -10 c0 -5 -9 -9
-19 -9 -11 0 -23 -5 -26 -11 -5 -7 -14 -4 -26 7 -28 25 -24 30 26 26 25 -2 45
-8 45 -13z m-260 -41 c0 -28 -3 -39 -10 -32 -9 9 -3 74 6 74 2 0 4 -19 4 -42z
m174 17 c9 -14 14 -31 10 -37 -7 -11 -33 26 -34 50 0 18 6 15 24 -13z m164
-27 c5 -7 8 -35 5 -63 -3 -38 -1 -47 8 -38 9 9 16 7 33 -8 17 -17 18 -21 6
-29 -19 -12 -60 25 -61 54 0 21 0 21 -16 -1 -11 -17 -25 -23 -54 -23 -22 0
-39 3 -39 6 0 11 23 48 39 64 13 11 13 13 1 5 -8 -5 -4 3 9 18 26 29 52 35 69
15z m-191 -20 c-3 -8 -6 -5 -6 6 -1 11 2 17 5 13 3 -3 4 -12 1 -19z m-113 -62
c43 -20 46 -26 9 -20 -21 3 -24 2 -13 -5 13 -9 12 -12 -4 -24 -10 -8 -30 -12
-45 -10 -19 3 -22 2 -12 -5 14 -10 7 -32 -10 -32 -10 0 -12 112 -3 148 7 23 7
23 24 -6 10 -16 34 -36 54 -46z m89 51 c3 -8 2 -19 -3 -26 -5 -9 -9 -4 -12 13
-5 27 6 36 15 13z m95 -119 c74 -28 127 -77 140 -130 9 -35 8 -46 -5 -60 -9
-10 -20 -15 -26 -11 -5 3 -7 1 -3 -5 3 -6 2 -13 -4 -17 -6 -4 -7 -11 -4 -17 4
-6 1 -9 -7 -6 -9 3 -16 26 -20 64 -3 32 -8 66 -11 74 -4 8 -9 27 -12 41 -7 33
-73 64 -131 63 -36 -1 -42 1 -38 16 6 22 40 18 121 -12z m67 22 c-3 -5 -14
-10 -23 -9 -14 0 -13 2 3 9 27 11 27 11 20 0z m69 -19 c10 -11 16 -25 14 -32
-4 -12 -11 -6 -46 36 -20 24 11 20 32 -4z m-274 -5 c0 -2 -13 -18 -30 -36 -16
-18 -30 -42 -30 -54 0 -11 -4 -27 -9 -35 -7 -11 -11 -8 -17 10 -4 13 -7 27 -6
32 1 4 -2 7 -8 7 -5 0 -10 5 -10 12 0 6 3 8 7 5 3 -4 12 -2 20 5 11 9 12 7 7
-7 -5 -13 -4 -16 4 -11 7 4 12 12 12 19 0 12 40 55 53 56 4 1 7 -1 7 -3z m4
-44 c-25 -21 -38 -76 -24 -103 8 -14 7 -19 -2 -19 -8 -1 -6 -6 6 -15 24 -18
21 -24 -43 -79 -55 -46 -82 -55 -44 -13 11 12 28 54 37 92 23 94 35 123 60
140 28 21 36 18 10 -3z m119 0 c25 -27 28 -68 8 -93 l-18 -22 -16 31 c-15 30
-15 31 6 29 16 -1 22 4 23 21 1 18 -4 22 -29 22 -29 0 -29 -1 -24 -40 3 -22 1
-40 -4 -40 -8 0 -14 47 -10 73 0 4 -6 7 -15 7 -14 0 -14 3 -4 15 17 20 63 19
83 -3z m165 -12 c13 -12 22 -32 22 -48 l-1 -27 -13 30 c-7 17 -21 39 -30 48
-25 24 -4 21 22 -3z m-103 -64 c4 -22 5 -58 3 -79 -3 -37 -3 -37 -26 -21 -18
12 -21 19 -11 30 14 17 17 89 6 124 -8 24 -7 24 7 6 8 -10 18 -37 21 -60z
m-135 12 c0 -5 -4 -8 -10 -8 -5 0 -10 -7 -10 -15 0 -20 -16 -19 -24 1 -10 27
-7 32 19 30 14 0 25 -4 25 -8z m-580 -102 c19 -8 27 -15 18 -16 -9 0 -23 -2
-31 -5 -7 -3 -25 4 -38 15 l-24 22 25 -16 c13 -9 29 -16 35 -16 13 1 -37 39
-51 40 -7 0 -14 10 -17 21 -5 20 -4 20 21 -4 15 -14 43 -33 62 -41z m590 55
c0 -5 -10 -11 -22 -14 -22 -6 -22 -6 -4 8 23 17 26 18 26 6z m35 -1 c3 -5 1
-10 -4 -10 -6 0 -11 5 -11 10 0 6 2 10 4 10 3 0 8 -4 11 -10z m688 -10 c-6
-24 -19 -26 -27 -4 -3 8 -2 12 3 9 5 -3 12 -1 16 5 10 16 14 12 8 -10z m-1265
-32 c20 -1 28 -6 22 -12 -11 -11 -93 18 -111 40 -8 10 -1 9 22 -5 19 -11 49
-21 67 -23z m783 -1 c-10 -9 -11 -8 -5 6 3 10 9 15 12 12 3 -3 0 -11 -7 -18z
m-258 -2 c-6 -17 -25 -15 -31 3 -2 7 5 12 17 12 14 0 19 -5 14 -15z m76 6 c9
-6 10 -11 2 -15 -13 -8 -31 1 -31 15 0 11 11 11 29 0z m581 0 c-28 -16 -60
-22 -60 -12 0 8 18 14 65 19 6 1 3 -2 -5 -7z m50 4 c0 -6 -56 -35 -67 -35 -4
1 8 9 27 20 39 22 40 22 40 15z m15 -15 c-3 -5 -16 -15 -28 -21 -19 -9 -19 -8
3 10 28 23 34 26 25 11z m-1174 -47 c35 -39 58 -74 29 -43 -14 14 -35 35 -48
48 -13 12 -19 22 -14 22 4 0 19 -12 33 -27z m26 10 c16 -21 39 -62 27 -48 -47
52 -56 65 -49 65 4 0 14 -8 22 -17z m34 -5 c11 -21 11 -22 -4 -9 -10 7 -17 17
-17 22 0 15 9 10 21 -13z m679 -3 c-14 -17 -40 -20 -40 -4 0 5 4 8 9 4 6 -3
16 1 23 9 17 18 25 11 8 -9z m199 -5 c-13 -16 -20 -32 -17 -35 3 -3 16 10 29
30 13 19 28 35 33 35 5 0 0 -10 -11 -22 -12 -13 -31 -39 -43 -58 -15 -25 -20
-28 -15 -11 5 16 4 21 -4 17 -7 -5 -8 -1 -4 11 11 29 35 63 44 63 5 0 0 -13
-12 -30z m64 3 c-16 -16 -39 -41 -52 -58 l-23 -30 17 30 c22 37 66 85 78 85 5
0 -4 -12 -20 -27z m-1018 -25 l40 -43 -40 35 c-22 19 -44 38 -49 42 -6 5 -6 8
0 8 5 0 28 -19 49 -42z m115 21 c0 -6 -4 -7 -10 -4 -5 3 -10 11 -10 16 0 6 5
7 10 4 6 -3 10 -11 10 -16z m339 -62 c1 -5 -3 -6 -8 -3 -4 3 -17 -4 -27 -15
-10 -12 -31 -27 -45 -35 -25 -13 -27 -12 -33 12 -5 18 1 35 21 62 48 66 56 68
75 25 9 -21 17 -42 17 -46z m11 53 c7 -16 16 -30 19 -30 4 0 21 14 38 30 l32
31 -8 -28 c-5 -15 -14 -27 -20 -25 -7 1 -10 -2 -7 -7 8 -13 -21 -34 -39 -27
-8 3 -14 9 -13 13 1 4 -6 23 -15 41 -10 17 -13 32 -8 32 5 0 14 -13 21 -30z
m118 -25 c0 -16 -2 -15 -8 5 -11 34 -11 60 0 35 5 -11 8 -29 8 -40z m328 11
c-13 -23 -26 -52 -29 -62 -4 -18 -5 -18 -6 1 -1 27 35 105 49 105 6 0 0 -20
-14 -44z m163 41 c-2 -2 -26 -23 -54 -47 l-50 -44 45 47 c24 26 48 47 54 47 5
0 7 -1 5 -3z m-1104 -43 l40 -35 -52 32 c-29 18 -53 34 -53 35 0 13 31 -2 65
-32z m670 5 c-8 -12 -45 2 -45 17 0 11 5 11 25 2 13 -6 22 -14 20 -19z m233
-26 c-20 -60 -36 -87 -24 -43 17 65 30 100 36 100 4 0 -2 -26 -12 -57z m228
44 c-10 -7 -38 -27 -62 -44 -24 -18 -44 -31 -44 -28 0 9 102 85 113 84 7 0 3
-6 -7 -12z m-260 -63 c-8 -27 -15 -40 -15 -28 -1 24 19 87 26 81 2 -3 -2 -27
-11 -53z m-1046 6 c-18 -22 -41 -63 -51 -90 -20 -53 -26 -140 -9 -140 6 0 10
24 10 53 0 61 31 134 80 187 20 22 29 28 24 15 -14 -38 -16 -115 -4 -131 11
-12 10 -13 -5 -8 -13 5 -16 3 -13 -7 3 -8 17 -16 31 -19 19 -4 24 -9 18 -19
-6 -8 -16 -11 -31 -6 -20 6 -22 5 -18 -19 4 -20 2 -26 -8 -22 -8 3 -13 0 -11
-6 1 -6 -4 -13 -12 -16 -9 -3 -11 0 -7 9 5 8 2 8 -6 -2 -7 -8 -27 -24 -45 -34
-17 -10 -34 -27 -36 -37 -4 -12 -11 -16 -22 -12 -9 4 -14 13 -11 21 4 11 1 11
-14 3 -15 -8 -20 -8 -20 2 -1 7 -9 3 -19 -9 -11 -13 -27 -23 -38 -22 -16 0
-16 1 2 9 12 4 27 15 34 24 7 9 18 13 24 9 6 -4 7 -1 3 6 -5 7 0 21 10 32 9
10 12 19 6 19 -6 0 -20 -12 -31 -26 -18 -23 -21 -24 -21 -8 0 16 -2 17 -11 4
-8 -11 -9 -8 -4 15 4 17 14 38 22 48 15 16 15 19 -5 40 -24 25 -29 43 -10 31
8 -5 9 -2 5 10 -4 10 -7 22 -7 27 0 6 -4 8 -9 4 -6 -3 -6 6 -1 24 14 51 22 56
37 27 19 -36 64 -35 111 2 81 62 106 67 62 12z m156 19 c19 -11 34 -22 34 -24
0 -4 -103 35 -109 41 -14 14 48 0 75 -17z m769 -27 c0 -12 -62 -82 -73 -82
-10 0 -32 44 -32 64 0 8 7 16 15 20 8 3 15 0 15 -6 0 -7 6 -3 14 8 11 15 12
22 3 34 -7 8 4 5 23 -7 19 -12 35 -26 35 -31z m405 36 c-14 -6 -42 -19 -62
-28 -21 -9 -35 -13 -32 -9 9 15 78 48 99 48 17 0 16 -2 -5 -11z m116 -21 c3
-22 2 -22 -26 8 l-24 26 23 -9 c14 -5 25 -16 27 -25z m-16 -46 c0 -3 -7 2 -14
12 -11 14 -15 15 -19 5 -4 -9 -6 -8 -6 4 -1 9 -4 25 -7 35 -4 10 5 3 20 -16
14 -19 26 -37 26 -40z m-684 27 c-9 -5 -14 -13 -12 -17 3 -4 -1 -8 -9 -8 -10
0 -7 8 8 27 12 15 24 22 26 17 2 -5 -4 -14 -13 -19z m124 28 c0 -3 -4 -8 -10
-11 -5 -3 -10 -1 -10 4 0 6 5 11 10 11 6 0 10 -2 10 -4z m126 -43 c-7 -29 -12
-40 -14 -27 -3 19 13 74 21 74 2 0 -1 -21 -7 -47z m-871 27 c14 -7 8 -8 -20
-3 -22 3 -42 7 -44 9 -9 8 45 2 64 -6z m1200 -5 c-62 -17 -69 -17 -30 0 17 8
41 14 55 14 15 0 5 -6 -25 -14z m287 -17 c-8 -8 -9 -4 -5 13 4 13 8 18 11 10
2 -7 -1 -18 -6 -23z m-1082 1 c0 -18 -2 -19 -15 -9 -15 12 -12 30 6 30 5 0 9
-10 9 -21z m480 -26 c-11 -17 -11 -17 -6 0 3 10 7 26 7 35 1 15 2 15 6 0 2
-10 -1 -25 -7 -35z m101 20 c-12 -20 -14 -14 -5 12 4 9 9 14 11 11 3 -2 0 -13
-6 -23z m-152 -37 c-9 -8 -10 -7 -5 7 3 10 7 26 7 35 1 9 4 6 6 -7 3 -13 -1
-28 -8 -35z m-851 37 c-10 -2 -26 -2 -35 0 -10 3 -2 5 17 5 19 0 27 -2 18 -5z
m289 -15 c-3 -8 -6 -5 -6 6 -1 11 2 17 5 13 3 -3 4 -12 1 -19z m50 -10 c-3 -7
-5 -2 -5 12 0 14 2 19 5 13 2 -7 2 -19 0 -25z m193 -13 c-10 -12 -10 -15 -1
-15 7 0 9 -5 6 -10 -10 -16 -25 -1 -25 24 0 29 23 55 28 31 2 -9 -2 -22 -8
-30z m718 38 c-10 -2 -26 -2 -35 0 -10 3 -2 5 17 5 19 0 27 -2 18 -5z m212
-18 c6 3 7 -1 4 -10 -5 -12 -10 -13 -20 -4 -15 12 -34 4 -34 -14 0 -7 4 -6 10
3 9 13 14 10 36 -15 l27 -29 20 24 20 25 -8 -24 c-5 -16 -4 -21 4 -17 18 12
12 -6 -11 -31 -20 -21 -20 -24 -5 -40 8 -10 18 -31 22 -48 5 -23 4 -26 -4 -15
-9 12 -11 13 -11 1 0 -10 -8 -7 -25 9 -34 32 -31 16 6 -31 18 -23 39 -39 52
-39 19 -1 20 -2 5 -10 -18 -11 -51 -3 -43 10 3 4 -3 14 -12 21 -15 12 -16 12
-10 -4 5 -15 3 -16 -12 -8 -17 10 -18 7 -13 -35 4 -37 1 -48 -17 -65 -21 -20
-21 -20 -21 1 0 12 -4 19 -10 15 -11 -7 4 -52 28 -79 16 -18 16 -18 -5 -7 -13
6 -23 18 -23 26 0 7 -5 17 -12 21 -8 5 -9 1 -5 -12 7 -18 6 -18 -6 -2 -13 16
-16 16 -38 -8 -30 -32 -79 -59 -79 -44 0 6 -4 8 -10 5 -26 -16 -6 19 30 51 45
41 86 102 75 112 -4 4 -10 2 -12 -5 -10 -29 -67 -95 -96 -113 -38 -24 -59 -26
-31 -4 18 14 18 15 -6 8 -24 -6 -24 -6 -5 10 11 8 14 16 8 16 -14 0 0 42 24
71 14 16 1 39 -22 39 -6 0 -20 6 -31 14 -17 13 -13 14 39 9 42 -4 57 -3 57 7
0 8 -9 11 -24 8 -14 -3 -31 -1 -38 4 -10 7 -9 8 4 4 24 -7 59 39 56 76 -2 25
-4 27 -14 14 -6 -9 -17 -16 -25 -16 -12 0 -12 2 0 9 11 7 10 10 -5 14 -18 4
-10 6 49 11 15 1 47 35 47 50 1 6 7 0 15 -14 8 -14 14 -46 15 -72 0 -27 5 -48
10 -48 13 0 13 91 0 124 -8 21 -6 28 9 38 18 11 18 13 3 25 -12 9 -5 8 21 -2
21 -9 42 -13 47 -10z m67 -7 c-3 -7 -5 -2 -5 12 0 14 2 19 5 13 2 -7 2 -19 0
-25z m-1140 -10 c-3 -8 -6 -5 -6 6 -1 11 2 17 5 13 3 -3 4 -12 1 -19z m274
-14 l-8 -29 -12 24 c-8 15 -9 21 -2 17 6 -4 14 0 17 9 10 26 14 11 5 -21z
m166 4 c-3 -7 -5 -2 -5 12 0 14 2 19 5 13 2 -7 2 -19 0 -25z m251 7 c-3 -3 -9
2 -12 12 -6 14 -5 15 5 6 7 -7 10 -15 7 -18z m-374 -1 c3 -8 2 -12 -4 -9 -6 3
-10 10 -10 16 0 14 7 11 14 -7z m359 -14 c10 -16 16 -30 14 -30 -2 0 -13 14
-25 30 -13 17 -19 30 -14 30 4 0 16 -13 25 -30z m427 5 c-7 -8 -17 -12 -22 -9
-5 3 -1 12 9 19 22 17 30 11 13 -10z m-1440 11 c0 -1 -5 -17 -11 -34 -7 -21
-15 -29 -25 -25 -8 3 -13 11 -10 18 7 19 -4 26 -25 14 -25 -13 -26 6 -1 20 16
10 72 15 72 7z m310 -28 c75 -17 126 -22 245 -22 142 0 221 11 351 49 16 5 40
-9 97 -54 l77 -61 -24 -48 c-61 -121 -70 -233 -34 -445 18 -110 20 -139 10
-199 -24 -156 -126 -281 -319 -391 -157 -90 -145 -88 -254 -33 -205 105 -313
209 -359 346 -25 76 -24 191 4 364 23 137 12 226 -38 332 l-34 72 76 61 c46
37 82 59 91 56 9 -3 59 -15 111 -27z m871 22 c10 -6 19 -16 19 -23 0 -8 -3 -9
-8 -1 -4 6 -15 13 -25 17 -14 5 -16 2 -14 -16 2 -12 2 -16 0 -9 -5 13 -23 17
-23 4 0 -4 13 -29 30 -55 22 -36 33 -45 47 -40 16 6 16 5 4 -11 -14 -17 -16
-17 -29 1 -33 44 -63 103 -57 113 3 5 1 10 -4 10 -6 0 -11 5 -11 10 0 13 46
13 71 0z m-751 -10 c0 -5 -5 -10 -11 -10 -5 0 -7 5 -4 10 3 6 8 10 11 10 2 0
4 -4 4 -10z m100 0 c0 -5 -4 -10 -10 -10 -5 0 -10 5 -10 10 0 6 5 10 10 10 6
0 10 -4 10 -10z m45 -10 c3 -6 -4 -10 -17 -10 -18 0 -20 2 -8 10 19 12 18 12
25 0z m679 -8 c2 -4 -4 -8 -14 -8 -10 0 -16 4 -14 8 3 4 9 8 14 8 5 0 11 -4
14 -8z m-1289 -41 c3 -5 1 -12 -5 -16 -5 -3 -10 1 -10 9 0 18 6 21 15 7z m-31
-53 c-10 -13 -19 -24 -20 -26 -1 -2 -4 4 -8 13 -3 9 -2 14 3 11 5 -3 14 1 21
9 7 8 15 15 18 15 3 0 -3 -10 -14 -22z m31 -81 c-32 -22 -54 -27 -61 -15 -4 7
-3 8 4 4 7 -4 12 -2 12 4 0 6 4 9 8 6 4 -2 14 -1 22 5 23 14 37 10 15 -4z
m110 -39 c26 -86 30 -184 11 -299 -25 -148 -26 -152 -42 -138 -11 9 -11 16 1
40 17 33 19 86 5 124 l-10 27 -40 -36 c-22 -20 -45 -36 -50 -36 -22 0 -90 41
-100 60 -14 27 -2 73 17 66 43 -17 92 -17 127 -1 43 21 45 35 7 56 -18 11 -30
28 -35 49 -8 42 -4 46 28 25 35 -23 47 -12 39 40 -11 86 18 102 42 23z m1000
-40 c-4 -27 -4 -48 0 -48 4 0 23 9 41 21 38 23 42 15 18 -37 -10 -20 -24 -34
-35 -34 -28 0 -32 -17 -7 -39 28 -27 78 -36 128 -23 l40 10 0 -32 c0 -36 -6
-46 -40 -69 -37 -26 -75 -21 -114 13 -34 30 -35 30 -45 11 -15 -28 -14 -97 3
-129 12 -24 12 -30 0 -47 -13 -18 -14 -17 -14 11 0 16 -4 45 -10 64 -17 63
-28 223 -19 285 4 32 16 77 25 98 17 37 18 38 27 15 4 -12 5 -44 2 -70z
m-1138 -18 c8 -23 8 -30 0 -30 -7 0 -3 -8 8 -16 19 -16 19 -16 -5 -10 -24 7
-24 6 -6 -8 35 -28 0 -17 -40 12 -21 16 -49 49 -62 73 l-23 44 26 -30 c25 -28
26 -28 20 -6 -5 16 -4 21 4 17 6 -4 14 0 17 9 6 14 9 14 28 -4 12 -11 26 -34
33 -51z m1236 43 c-5 -12 -7 -12 -14 -1 -13 20 -11 28 5 22 8 -3 12 -12 9 -21z
m-1213 13 c0 -3 -4 -8 -10 -11 -5 -3 -10 -1 -10 4 0 6 5 11 10 11 6 0 10 -2
10 -4z m-245 -16 c3 -5 1 -10 -4 -10 -6 0 -11 5 -11 10 0 6 2 10 4 10 3 0 8
-4 11 -10z m135 -85 c0 -3 -5 -3 -12 1 -7 4 -8 3 -4 -5 4 -6 12 -9 17 -6 5 4
20 -2 34 -12 28 -21 34 -46 8 -36 -11 5 -14 3 -9 -6 15 -24 -48 16 -77 48 -15
17 -32 31 -37 31 -6 0 -10 5 -10 12 0 6 3 8 7 5 3 -4 13 2 20 13 14 20 15 20
39 -9 13 -16 24 -32 24 -36z m1551 -22 c13 -16 12 -17 -3 -4 -17 13 -22 21
-14 21 2 0 10 -8 17 -17z m-65 -97 c-6 -57 -57 -148 -93 -167 -26 -14 -30 -34
-7 -43 8 -3 13 -2 10 2 -3 5 11 26 31 47 38 41 72 106 73 140 1 20 2 20 9 0 4
-10 7 -31 5 -45 -7 -64 -7 -117 0 -129 13 -20 -9 -35 -24 -16 -7 8 -8 15 -3
15 5 0 10 8 10 17 0 14 -3 13 -15 -5 -15 -23 -39 -32 -26 -9 5 8 2 8 -9 -2
-19 -15 -23 -26 -5 -15 8 5 9 0 5 -15 -6 -25 20 -42 33 -22 5 9 9 8 13 -4 4
-9 3 -14 -2 -11 -5 3 -29 -5 -53 -18 -24 -13 -55 -27 -69 -30 -23 -7 -23 -6
-5 8 30 24 9 19 -23 -5 -16 -12 -34 -18 -40 -15 -6 4 -11 3 -11 -2 0 -5 -8
-12 -17 -16 -10 -3 -24 -9 -31 -12 -11 -5 -12 -2 -2 15 6 12 15 19 20 16 6 -3
7 1 4 9 -4 10 7 23 30 38 37 24 46 38 24 38 -20 -1 -76 -56 -98 -97 l-20 -38
0 30 c1 38 23 101 45 125 16 17 15 20 -4 39 -15 15 -21 34 -21 66 0 25 4 45 9
45 12 0 32 -25 26 -32 -3 -3 2 -11 12 -19 14 -12 16 -12 11 1 -5 13 1 15 30
12 49 -6 90 19 130 76 22 33 32 60 33 87 0 37 1 38 10 15 6 -14 8 -47 5 -74z
m-1510 -33 c38 -50 82 -74 126 -71 31 3 35 1 25 -11 -10 -12 -9 -14 8 -8 20 7
20 7 1 -8 -11 -8 -17 -18 -13 -21 4 -4 13 -1 22 6 12 10 15 9 15 -6 1 -18 1
-18 15 0 8 11 15 14 15 8 0 -7 -9 -21 -21 -33 -20 -20 -21 -21 -2 -42 27 -31
43 -73 43 -110 l-1 -32 -20 38 c-11 20 -26 37 -35 37 -8 0 -13 4 -10 9 7 11
-41 44 -56 39 -6 -2 6 -16 26 -31 32 -25 53 -58 24 -41 -7 4 -8 3 -4 -5 4 -6
11 -9 16 -6 5 3 14 -4 20 -15 13 -24 7 -25 -23 -6 -12 8 -49 19 -81 25 -33 6
-68 18 -78 28 -14 13 -21 14 -30 5 -7 -7 -21 -12 -32 -11 -12 0 -15 3 -8 6 19
7 14 23 -5 16 -15 -5 -16 -4 -7 8 17 22 24 49 14 49 -6 0 -10 -7 -10 -15 0
-17 -30 -34 -49 -27 -8 3 -11 0 -7 -7 4 -6 14 -11 22 -11 8 0 14 -4 14 -10 0
-15 -11 -12 -32 7 -23 20 -23 35 0 32 30 -3 42 1 42 12 0 5 -5 7 -12 3 -8 -5
-9 -2 -3 12 4 10 11 64 15 119 4 55 8 91 8 81 5 -50 112 -199 131 -181 3 4 -6
17 -20 29 -65 56 -107 157 -94 223 l8 38 8 -44 c5 -24 20 -59 35 -78z m1334
86 c-12 -9 -11 -10 8 -6 12 3 22 1 22 -4 0 -11 -15 -11 -49 -2 -23 6 -23 7 -5
14 28 11 41 10 24 -2z m-1182 -11 c-16 -10 -45 -10 -51 0 -3 4 10 7 29 8 21 0
30 -3 22 -8z m62 -133 c0 -19 -4 -35 -9 -35 -5 0 -7 10 -5 23 2 12 2 16 -2 9
-3 -6 -10 -9 -16 -6 -5 3 -2 14 8 25 23 25 24 25 24 -16z m1290 -125 c0 -5 -5
-10 -11 -10 -5 0 -7 5 -4 10 3 6 8 10 11 10 2 0 4 -4 4 -10z m5 -70 c3 -6 -1
-7 -9 -4 -18 7 -21 14 -7 14 6 0 13 -4 16 -10z m60 0 c-3 -5 -12 -10 -18 -10
-7 0 -6 4 3 10 19 12 23 12 15 0z m-163 -175 c39 7 41 6 29 -9 -13 -16 -12
-17 13 -10 25 6 26 5 15 -19 -8 -18 -8 -30 0 -45 11 -21 -2 -42 -14 -22 -3 5
-11 10 -17 10 -6 0 6 -18 26 -40 20 -22 36 -43 36 -48 0 -4 -10 5 -21 21 -19
25 -48 40 -34 17 9 -14 -10 -12 -52 5 -36 15 -52 9 -53 -17 0 -5 -5 -8 -10 -8
-7 0 -7 6 0 19 15 30 12 43 -9 36 -12 -4 -23 2 -33 17 -13 21 -13 25 1 40 16
16 20 15 61 -12 24 -16 48 -26 54 -23 5 4 -1 11 -14 17 -38 17 -84 63 -71 71
6 3 8 11 5 17 -4 5 5 2 19 -7 20 -13 37 -15 69 -10z m-1338 -4 c19 -7 19 -8
-2 -13 -12 -4 -26 0 -33 8 -13 16 2 18 35 5z m-51 -37 c-4 -10 -9 -12 -15 -6
-12 12 -1 35 12 27 5 -3 6 -13 3 -21z m92 -4 c-3 -5 -12 -10 -18 -10 -7 0 -6
4 3 10 19 12 23 12 15 0z m-98 -45 c0 -8 -4 -12 -9 -9 -5 3 -6 10 -3 15 9 13
12 11 12 -6z"/>
<path d="M830 2039 c0 -5 5 -7 10 -4 6 3 10 8 10 11 0 2 -4 4 -10 4 -5 0 -10
-5 -10 -11z"/>
<path d="M946 2032 c-3 -5 1 -9 9 -9 8 0 12 4 9 9 -3 4 -7 8 -9 8 -2 0 -6 -4
-9 -8z"/>
<path d="M893 1737 c3 -15 0 -30 -4 -33 -12 -7 -11 -24 0 -24 16 0 22 36 11
61 -10 24 -10 24 -7 -4z"/>
<path d="M80 1671 c0 -22 23 -70 36 -75 18 -7 18 8 -1 24 -22 18 -18 29 8 23
21 -6 20 -5 -5 16 -28 23 -38 26 -38 12z"/>
<path d="M1727 1581 c-4 -17 -3 -21 5 -13 5 5 8 16 6 23 -3 8 -7 3 -11 -10z"/>
<path d="M561 1559 l-61 -50 21 -41 c54 -106 66 -254 34 -428 -21 -118 -19
-213 5 -286 40 -119 165 -237 344 -326 l86 -43 43 16 c86 31 211 114 288 190
136 136 158 228 113 473 -16 91 -18 231 -3 295 5 24 21 68 36 99 l26 54 -29
24 c-16 13 -46 36 -67 50 l-38 27 -97 -22 c-65 -16 -142 -25 -232 -28 -117 -4
-152 -1 -265 21 -71 14 -133 26 -137 26 -3 0 -34 -23 -67 -51z m555 -77 c27
-18 20 -63 -10 -62 -6 0 -3 5 6 11 10 5 15 16 11 25 -5 12 -11 10 -34 -12 -33
-31 -37 -25 -12 17 18 31 22 33 39 21z m-453 -49 c-8 -3 -11 -15 -8 -31 5 -27
5 -27 -5 -3 -13 31 -3 69 13 51 9 -10 9 -14 0 -17z m90 5 c-9 -10 -19 -15 -24
-13 -4 3 -15 -5 -23 -17 l-16 -22 0 21 c0 12 -2 28 -5 36 -5 11 4 14 39 13 42
-1 44 -2 29 -18z m106 19 c-2 -1 -15 -11 -29 -22 l-25 -20 19 23 c11 12 24 22
29 22 6 0 8 -1 6 -3z m532 -28 c7 -13 6 -25 -1 -37 -10 -15 -10 -14 -5 4 8 30
-20 52 -46 36 -10 -7 -19 -8 -19 -3 0 14 31 30 47 24 8 -3 18 -14 24 -24z
m-671 -38 c-5 -11 -15 -23 -21 -27 -6 -3 -3 5 6 20 20 30 30 35 15 7z m112
-46 c-6 -49 -11 -62 -32 -72 -24 -12 -90 -18 -90 -8 0 2 27 32 60 65 33 33 60
66 60 72 0 6 2 9 5 6 3 -2 1 -31 -3 -63z m383 45 c-11 -5 -31 -9 -45 -9 -20
-1 -22 1 -10 9 8 5 29 9 45 9 26 0 27 -2 10 -9z m-131 -25 c3 -8 2 -15 -3 -15
-5 0 -14 7 -21 15 -10 12 -10 15 3 15 8 0 17 -7 21 -15z m136 -37 c0 -16 -3
-19 -11 -11 -6 6 -8 16 -5 22 11 17 16 13 16 -11z m32 0 c-7 -7 -12 -8 -12 -2
0 14 12 26 19 19 2 -3 -1 -11 -7 -17z m-507 2 c-3 -5 -12 -10 -18 -10 -7 0 -6
4 3 10 19 12 23 12 15 0z m406 -7 c13 -16 12 -17 -3 -4 -10 7 -18 15 -18 17 0
8 8 3 21 -13z m34 7 c3 -5 2 -10 -4 -10 -5 0 -13 5 -16 10 -3 6 -2 10 4 10 5
0 13 -4 16 -10z m114 7 c-2 -1 -13 -9 -24 -17 -19 -14 -19 -14 -6 3 7 9 18 17
24 17 6 0 8 -1 6 -3z m-419 -88 c0 -27 -3 -29 -37 -29 -21 0 -50 -7 -65 -14
-16 -8 -28 -11 -28 -7 0 4 12 13 26 19 15 7 22 17 18 24 -4 6 -3 8 3 5 5 -3
22 5 39 18 34 27 44 24 44 -16z m-200 12 c0 -5 -7 -12 -16 -15 -14 -5 -15 -4
-4 9 14 17 20 19 20 6z m325 -1 c3 -5 1 -10 -4 -10 -6 0 -11 5 -11 10 0 6 2
10 4 10 3 0 8 -4 11 -10z m98 -115 c39 -45 66 -84 63 -92 -3 -8 -2 -11 3 -8 6
3 44 -34 85 -82 l76 -88 -137 -3 c-84 -2 -140 1 -147 8 -7 7 -5 10 5 10 8 0
32 16 54 35 22 19 43 35 47 35 4 0 18 11 32 23 18 17 22 27 15 34 -13 13 -49
5 -49 -11 0 -6 -5 -4 -10 4 -8 13 -10 13 -10 -2 0 -9 -8 -19 -17 -22 -10 -3
-44 -31 -77 -61 l-58 -55 -160 0 c-140 0 -159 2 -148 15 9 11 46 15 173 17
l161 3 0 35 0 35 -125 5 c-86 3 -119 8 -109 15 18 12 24 12 140 14 l90 1 0 29
c0 36 -13 41 -96 41 -41 0 -63 4 -59 10 3 6 40 10 81 10 l74 0 0 35 c0 34 -1
35 -42 35 -50 0 -46 9 8 16 22 2 41 9 42 14 2 6 8 8 13 4 5 -3 9 -1 9 5 0 5
-5 12 -10 14 -6 3 -5 4 2 3 7 -1 44 -38 81 -81z m-306 -362 c-3 -10 -5 -4 -5
12 0 17 2 24 5 18 2 -7 2 -21 0 -30z m-64 -4 c3 -11 1 -19 -4 -19 -5 0 -9 6
-10 13 0 10 -2 10 -6 0 -8 -21 -43 -16 -43 6 0 27 56 26 63 0z m27 -1 c0 -19
-2 -20 -10 -8 -13 19 -13 30 0 30 6 0 10 -10 10 -22z m337 16 c-3 -3 -12 -4
-19 -1 -8 3 -5 6 6 6 11 1 17 -2 13 -5z m33 -29 c0 -5 -5 -3 -10 5 -5 8 -10
20 -10 25 0 6 5 3 10 -5 5 -8 10 -19 10 -25z m260 27 c0 -5 -7 -9 -15 -9 -8 0
-12 4 -9 9 3 4 9 8 15 8 5 0 9 -4 9 -8z m-765 -41 c-6 -5 -25 10 -25 20 0 5 6
4 14 -3 8 -7 12 -15 11 -17z m723 -2 c3 -12 2 -12 -6 0 -8 11 -10 11 -15 0 -4
-10 -6 -8 -6 4 -1 21 21 18 27 -4z m42 15 c0 -8 -19 -13 -24 -6 -3 5 1 9 9 9
8 0 15 -2 15 -3z m-399 -43 c-11 -7 -10 -12 8 -22 11 -8 21 -18 21 -23 0 -5
-11 1 -25 14 -24 23 -25 40 -2 40 8 0 7 -3 -2 -9z m73 -6 c3 -8 1 -15 -4 -15
-6 0 -10 7 -10 15 0 8 2 15 4 15 2 0 6 -7 10 -15z m-205 -69 c-8 -8 -197 -11
-205 -3 -4 4 41 7 101 7 60 0 106 -2 104 -4z m461 -7 c0 -12 -379 -9 -387 4
-2 4 84 7 191 7 134 0 196 -3 196 -11z"/>
<path d="M680 780 c0 -5 5 -10 10 -10 6 0 10 5 10 10 0 6 -4 10 -10 10 -5 0
-10 -4 -10 -10z"/>
<path d="M314 1369 c-3 -6 4 -21 17 -33 22 -20 22 -20 6 0 -20 24 -22 39 -5
28 7 -4 8 -3 4 4 -9 15 -13 15 -22 1z"/>
<path d="M233 1317 c0 -8 6 -14 14 -14 9 0 10 4 2 14 -6 7 -12 13 -14 13 -1 0
-2 -6 -2 -13z"/>
<path d="M1523 1044 c3 -19 8 -38 12 -42 4 -4 5 4 2 16 -5 23 -5 23 14 6 32
-29 32 -8 -1 24 l-30 31 3 -35z"/>
<path d="M1699 913 c-1 -5 -1 -11 0 -15 0 -4 -6 -5 -14 -2 -11 5 -13 2 -9 -9
7 -18 34 -11 34 9 0 8 7 11 18 8 14 -5 15 -4 2 5 -18 13 -30 14 -31 4z"/>
<path d="M1272 391 c-30 -11 -77 -35 -105 -54 -90 -59 -119 -71 -177 -71 -59
0 -73 5 -165 59 -113 67 -122 69 -245 73 -102 3 -119 1 -139 -15 -22 -18 -23
-23 -13 -66 5 -26 6 -47 1 -47 -4 0 -48 13 -97 30 -50 17 -95 30 -101 30 -17
0 -13 -26 10 -80 l21 -49 -31 -47 c-39 -59 -39 -70 0 -66 3 1 51 -10 105 -23
181 -45 254 -30 254 54 l0 39 34 -8 c18 -4 73 -28 122 -53 131 -67 188 -87
248 -87 29 0 136 29 146 40 3 3 39 21 80 42 151 73 170 76 170 20 0 -51 32
-82 86 -82 47 0 304 62 304 73 0 5 -16 28 -35 52 l-35 43 31 61 c17 34 29 65
25 69 -7 6 -77 -10 -177 -42 l-47 -14 11 33 c11 38 3 80 -16 88 -8 3 -58 8
-113 11 -84 6 -107 3 -152 -13z m-654 -8 c-10 -2 -28 -2 -40 0 -13 2 -5 4 17
4 22 1 32 -1 23 -4z m835 0 c-7 -2 -21 -2 -30 0 -10 3 -4 5 12 5 17 0 24 -2
18 -5z m-683 -49 c0 -2 -9 0 -20 6 -11 6 -20 13 -20 16 0 2 9 0 20 -6 11 -6
20 -13 20 -16z m767 4 c-3 -8 -6 -5 -6 6 -1 11 2 17 5 13 3 -3 4 -12 1 -19z
m-949 -12 c4 -17 2 -17 -18 -3 -31 21 -50 11 -50 -27 0 -46 21 -70 53 -64 15
3 27 1 27 -3 0 -16 -73 -9 -92 8 -23 20 -23 71 -1 95 22 25 76 21 81 -6z m777
3 c4 -13 1 -27 -9 -38 -9 -10 -12 -21 -7 -27 5 -5 12 -19 16 -31 5 -19 2 -23
-14 -23 -13 0 -21 8 -23 23 -5 34 -33 28 -32 -8 0 -16 -7 -35 -15 -42 -24 -19
-33 -15 -21 8 6 11 10 46 9 76 -3 56 -3 57 32 69 48 18 57 17 64 -7z m119 5
c9 -8 13 -20 10 -25 -3 -6 -11 -3 -19 7 -8 11 -18 15 -30 10 -16 -6 -15 -10
15 -41 33 -34 33 -35 15 -55 -10 -11 -26 -20 -35 -20 -22 0 -57 26 -48 36 5 4
16 0 26 -9 12 -11 22 -13 32 -7 12 8 9 15 -17 40 -38 36 -38 37 -16 62 20 22
46 23 67 2z m-790 -49 c5 -27 4 -28 -9 -11 -7 10 -18 15 -24 11 -12 -7 -16 37
-4 49 11 11 31 -16 37 -49z m176 -11 c0 -2 -13 2 -30 11 -16 9 -30 18 -30 21
0 2 14 -2 30 -11 17 -9 30 -18 30 -21z m380 21 c0 -9 -9 -15 -23 -15 -27 0
-47 -17 -47 -42 0 -22 27 -14 33 10 3 10 5 3 6 -15 1 -25 -2 -31 -14 -27 -18
7 -38 -36 -23 -51 6 -7 18 0 35 19 19 22 24 25 22 11 -2 -10 -24 -31 -49 -45
l-46 -27 2 71 2 71 43 28 c49 31 59 33 59 12z m-603 -47 c-3 -8 -6 -5 -6 6 -1
11 2 17 5 13 3 -3 4 -12 1 -19z m143 -45 c0 -7 5 -13 10 -13 13 0 29 41 23 58
-4 8 0 10 11 6 17 -7 21 -20 7 -28 -4 -3 -14 -26 -21 -51 -7 -25 -16 -45 -19
-45 -4 0 -14 24 -23 53 -9 28 -20 61 -23 72 -4 12 2 8 14 -10 11 -16 21 -36
21 -42z m328 6 c-6 -17 -8 -48 -5 -70 3 -21 4 -39 2 -39 -2 0 -9 -2 -17 -5
-10 -4 -13 10 -13 62 0 66 7 83 32 83 9 0 9 -8 1 -31z m-181 -66 c23 -73 46
-72 41 2 -3 52 3 65 31 65 4 0 5 -27 3 -60 -4 -51 -2 -60 12 -60 9 0 19 7 22
15 9 22 23 18 17 -5 -5 -20 -16 -23 -88 -22 -51 0 -55 1 -55 21 0 10 -7 22
-16 25 -26 10 -36 7 -30 -9 3 -9 0 -15 -9 -15 -17 0 -28 17 -16 24 5 4 17 29
27 58 15 47 18 50 31 33 7 -11 21 -43 30 -72z m-200 42 c10 -22 9 -24 -5 -16
-8 5 -17 16 -18 25 -3 24 10 19 23 -9z m971 -20 c-3 -3 -9 2 -12 12 -6 14 -5
15 5 6 7 -7 10 -15 7 -18z m-341 9 c-3 -3 -12 -4 -19 -1 -8 3 -5 6 6 6 11 1
17 -2 13 -5z m-47 -14 c-8 -5 -19 -10 -25 -10 -5 0 -3 5 5 10 8 5 20 10 25 10
6 0 3 -5 -5 -10z m-535 -58 c-3 -3 -11 0 -18 7 -9 10 -8 11 6 5 10 -3 15 -9
12 -12z m415 3 c0 -2 -10 -9 -22 -15 -22 -11 -22 -10 -4 4 21 17 26 19 26 11z
m527 -1 c-3 -3 -12 -4 -19 -1 -8 3 -5 6 6 6 11 1 17 -2 13 -5z m-1166 -27
c-10 -9 -11 -8 -5 6 3 10 9 15 12 12 3 -3 0 -11 -7 -18z m869 -2 c14 -19 14
-19 -2 -6 -10 7 -18 18 -18 24 0 6 1 8 3 6 1 -2 9 -13 17 -24z m257 19 c-3 -3
-12 -4 -19 -1 -8 3 -5 6 6 6 11 1 17 -2 13 -5z m-1164 -41 c-7 -2 -19 -2 -25
0 -7 3 -2 5 12 5 14 0 19 -2 13 -5z m994 1 c-3 -3 -12 -4 -19 -1 -8 3 -5 6 6
6 11 1 17 -2 13 -5z m-480 -10 c-3 -3 -12 -4 -19 -1 -8 3 -5 6 6 6 11 1 17 -2
13 -5z"/>
<path d="M1313 323 c-7 -3 -13 -16 -13 -29 0 -22 3 -23 20 -14 31 16 24 54 -7
43z"/>
<path d="M887 166 c-3 -8 -2 -18 4 -22 16 -9 22 2 11 21 -8 15 -10 16 -15 1z"/>
</g>
</svg>
